<svg xmlns="http://www.w3.org/2000/svg" xmlns:xlink="http://www.w3.org/1999/xlink" fill="none" version="1.1" width="26" height="26" viewBox="0 0 26 26"><defs><clipPath id="master_svg0_675_24939"><rect x="8" y="8" width="10" height="10" rx="0"/></clipPath></defs><g><rect x="3" y="3" width="20" height="20" rx="10" fill="#4044ED" fill-opacity="1"/><rect x="1.5" y="1.5" width="23" height="23" rx="11.5" fill-opacity="0" stroke-opacity="1" stroke="#E5E6FF" fill="none" stroke-width="3"/><g clip-path="url(#master_svg0_675_24939)"><g><g></g><g><path d="M8.833008358876,11.7475C8.8320847355,10.366810000000001,9.9523178125,9.24769857,11.3330078125,9.25000397364L14.6663378125,9.25000397364C16.0467578125,9.25000397364,17.1663378125,10.37292,17.1663378125,11.7475L17.1663378125,16.75L11.3330078125,16.75C9.9525878125,16.75,8.833008358876,15.627089999999999,8.833008358876,14.252500000000001L8.833008358876,11.7475ZM13.8330078125,12.58334L13.8330078125,13.41667L14.6663378125,13.41667L14.6663378125,12.58334L13.8330078125,12.58334ZM11.3330078125,12.58334L11.3330078125,13.41667L12.1663378125,13.41667L12.1663378125,12.58334L11.3330078125,12.58334Z" fill="#FFFFFF" fill-opacity="1"/></g></g></g></g></svg>