<svg xmlns="http://www.w3.org/2000/svg" xmlns:xlink="http://www.w3.org/1999/xlink" fill="none" version="1.1" width="20" height="20" viewBox="0 0 20 20"><g><g><path d="M15,10Q15,10.12274,14.99398,10.245339999999999Q14.98795,10.367930000000001,14.97592,10.49009Q14.96389,10.61224,14.94588,10.73365Q14.92787,10.855070000000001,14.90392,10.97545Q14.87998,11.095839999999999,14.85015,11.2149Q14.82033,11.333960000000001,14.7847,11.451419999999999Q14.74907,11.56888,14.70772,11.68445Q14.66637,11.80002,14.6194,11.91342Q14.57242,12.02682,14.51995,12.13777Q14.46747,12.24873,14.40961,12.35698Q14.35174,12.46523,14.28864,12.570509999999999Q14.22554,12.67579,14.15735,12.77785Q14.08915,12.879909999999999,14.01604,12.9785Q13.94292,13.07708,13.86505,13.17197Q13.78718,13.26685,13.70475,13.35779Q13.62232,13.44874,13.53553,13.53553Q13.44874,13.62232,13.35779,13.70475Q13.26685,13.78718,13.17197,13.86505Q13.07708,13.94292,12.9785,14.01604Q12.879909999999999,14.08915,12.77785,14.15735Q12.67579,14.22554,12.570509999999999,14.28864Q12.46523,14.35174,12.35698,14.40961Q12.24873,14.46747,12.13777,14.51995Q12.02682,14.57242,11.91342,14.6194Q11.80002,14.66637,11.68445,14.70772Q11.56888,14.74907,11.451419999999999,14.7847Q11.333960000000001,14.82033,11.2149,14.85015Q11.095839999999999,14.87998,10.97545,14.90392Q10.855070000000001,14.92787,10.73365,14.94588Q10.61224,14.96389,10.49009,14.97592Q10.367930000000001,14.98795,10.245339999999999,14.99398Q10.12274,15,10,15Q9.87726,15,9.754660000000001,14.99398Q9.632069999999999,14.98795,9.50991,14.97592Q9.38776,14.96389,9.26635,14.94588Q9.144929999999999,14.92787,9.02455,14.90392Q8.904160000000001,14.87998,8.7851,14.85015Q8.66603,14.82033,8.54858,14.7847Q8.43112,14.74907,8.31555,14.70772Q8.19998,14.66637,8.08658,14.6194Q7.97318,14.57242,7.862220000000001,14.51995Q7.75127,14.46747,7.64302,14.40961Q7.53477,14.35174,7.4294899999999995,14.28864Q7.32421,14.22554,7.22215,14.15735Q7.120089999999999,14.08915,7.0215,14.01604Q6.92291,13.94292,6.82803,13.86505Q6.73315,13.78718,6.6422,13.70475Q6.55126,13.62232,6.46447,13.53553Q6.37767,13.44874,6.29524,13.35779Q6.21282,13.26685,6.13495,13.17197Q6.05708,13.07708,5.983962,12.9785Q5.910844,12.879909999999999,5.842652,12.77785Q5.774459,12.67579,5.711357,12.570509999999999Q5.648254,12.46523,5.590394,12.35698Q5.532533,12.24873,5.480053,12.13777Q5.427574,12.02682,5.380602,11.91342Q5.3336310000000005,11.80002,5.29228,11.68445Q5.250929,11.56888,5.215298,11.451419999999999Q5.179668,11.333960000000001,5.149844,11.2149Q5.12002,11.095839999999999,5.0960736,10.97545Q5.0721276,10.855070000000001,5.0541174,10.73365Q5.0361073,10.61224,5.0240764,10.49009Q5.0120454,10.367930000000001,5.00602272,10.245339999999999Q5,10.12274,5,10Q5,9.87726,5.00602272,9.754660000000001Q5.0120454,9.632069999999999,5.0240764,9.50991Q5.0361073,9.38776,5.0541174,9.26635Q5.0721276,9.144929999999999,5.0960736,9.02455Q5.12002,8.904160000000001,5.149844,8.7851Q5.179668,8.66603,5.215298,8.54858Q5.250929,8.43112,5.29228,8.31555Q5.3336310000000005,8.19998,5.380602,8.08658Q5.427574,7.97318,5.480053,7.862220000000001Q5.532533,7.75127,5.590394,7.64302Q5.648254,7.53477,5.711357,7.4294899999999995Q5.774459,7.32421,5.842652,7.22215Q5.910844,7.120089999999999,5.983962,7.0215Q6.05708,6.92291,6.13495,6.82803Q6.21282,6.73315,6.29524,6.6422Q6.37767,6.55126,6.46447,6.46447Q6.55126,6.37767,6.6422,6.29524Q6.73315,6.21282,6.82803,6.13495Q6.92291,6.05708,7.0215,5.983962Q7.120089999999999,5.910844,7.22215,5.842652Q7.32421,5.774459,7.4294899999999995,5.711357Q7.53477,5.648254,7.64302,5.590394Q7.75127,5.532533,7.862220000000001,5.480053Q7.97318,5.427574,8.08658,5.380602Q8.19998,5.3336310000000005,8.31555,5.29228Q8.43112,5.250929,8.54858,5.215298Q8.66603,5.179668,8.7851,5.149844Q8.904160000000001,5.12002,9.02455,5.0960736Q9.144929999999999,5.0721276,9.26635,5.0541174Q9.38776,5.0361073,9.50991,5.0240764Q9.632069999999999,5.0120454,9.754660000000001,5.00602272Q9.87726,5,10,5Q10.12274,5,10.245339999999999,5.00602272Q10.367930000000001,5.0120454,10.49009,5.0240764Q10.61224,5.0361073,10.73365,5.0541174Q10.855070000000001,5.0721276,10.97545,5.0960736Q11.095839999999999,5.12002,11.2149,5.149844Q11.333960000000001,5.179668,11.451419999999999,5.215298Q11.56888,5.250929,11.68445,5.29228Q11.80002,5.3336310000000005,11.91342,5.380602Q12.02682,5.427574,12.13777,5.480053Q12.24873,5.532533,12.35698,5.590394Q12.46523,5.648254,12.570509999999999,5.711357Q12.67579,5.774459,12.77785,5.842652Q12.879909999999999,5.910844,12.9785,5.983962Q13.07708,6.05708,13.17197,6.13495Q13.26685,6.21282,13.35779,6.29524Q13.44874,6.37767,13.53553,6.46447Q13.62232,6.55126,13.70475,6.6422Q13.78718,6.73315,13.86505,6.82803Q13.94292,6.92291,14.01604,7.0215Q14.08915,7.120089999999999,14.15735,7.22215Q14.22554,7.32421,14.28864,7.4294899999999995Q14.35174,7.53477,14.40961,7.64302Q14.46747,7.75127,14.51995,7.862220000000001Q14.57242,7.97318,14.6194,8.08658Q14.66637,8.19998,14.70772,8.31555Q14.74907,8.43112,14.7847,8.54858Q14.82033,8.66603,14.85015,8.7851Q14.87998,8.904160000000001,14.90392,9.02455Q14.92787,9.144929999999999,14.94588,9.26635Q14.96389,9.38776,14.97592,9.50991Q14.98795,9.632069999999999,14.99398,9.754660000000001Q15,9.87726,15,10Z" fill="#4044ED" fill-opacity="0.5"/></g><g><path d="M19,10Q19,11.7167,18.3681,13.3129Q17.682,15.0459,16.364,16.364Q15.0459,17.682,13.3129,18.3681Q11.7167,19,10,19Q8.28331,19,6.68715,18.3681Q4.95406,17.682,3.63604,16.364Q2.3180199999999997,15.0459,1.6319050000000002,13.3129Q1,11.7167,1,10Q1,8.28331,1.6319050000000002,6.68715Q2.3180199999999997,4.95406,3.63604,3.63604Q4.95406,2.3180199999999997,6.68715,1.6319050000000002Q8.28331,1,10,1Q11.7167,1,13.3129,1.6319050000000002Q15.0459,2.3180199999999997,16.364,3.63604Q17.682,4.95406,18.3681,6.68715Q19,8.28331,19,10ZM15,10C15,12.7614,12.7614,15,10,15C7.23858,15,5,12.7614,5,10C5,7.23858,7.23858,5,10,5C12.7614,5,15,7.23858,15,10Z" fill-rule="evenodd" fill="#E5E6FF" fill-opacity="1"/></g></g></svg>