<svg xmlns="http://www.w3.org/2000/svg" xmlns:xlink="http://www.w3.org/1999/xlink" fill="none" version="1.1" width="36" height="36" viewBox="0 0 36 36"><defs><clipPath id="master_svg0_1006_30355"><rect x="0" y="0" width="36" height="36" rx="0"/></clipPath></defs><g clip-path="url(#master_svg0_1006_30355)"><g></g><g><path d="M2.999969482421875,7.499809265136719L2.999969482421875,13.499989265136719L32.999969482421875,13.499989265136719L32.999969482421875,10.499809265136719C32.999969482421875,9.671379265136718,32.25376948242187,8.999809265136719,31.333269482421876,8.999809265136719L20.356669482421875,8.999809265136719L17.023269482421874,5.999809265136719L4.666639482421875,5.999809265136719C3.7461614824218747,5.999809265136719,2.999969482421875,6.671382265136719,2.999969482421875,7.499809265136719Z" fill="#29A0EB" fill-opacity="1"/></g><g><path d="M4.513839482421875,11.99981689453125L31.486069482421875,11.99981689453125C32.371569482421876,11.99938917153125,33.06816948242188,12.81202089453125,32.99466948242188,13.75969689453125L31.732769482421876,30.00971689453125C31.667469482421875,30.85161689453125,31.012369482421875,31.49931689453125,30.225669482421875,31.49981689453125L5.774239482421875,31.49981689453125C4.987599482421875,31.49931689453125,4.332499482421875,30.85161689453125,4.267209482421875,30.00971689453125L3.005294882421875,13.75969689453125C2.931801582421875,12.81202289453125,3.628381482421875,11.99938917153125,4.513839482421875,11.99981689453125Z" fill="#44C9FF" fill-opacity="1"/></g></g></svg>